<svg width="281" height="168" viewBox="0 0 281 168" fill="none" xmlns="http://www.w3.org/2000/svg">
<g clip-path="url(#clip0_107_148)">
<rect x="0.5" width="280" height="168" rx="16" fill="#111827"/>
<ellipse cx="215.001" cy="70.5011" rx="67.0078" ry="104.486" transform="rotate(-45 215.001 70.5011)" fill="#A855F7"/>
<path opacity="0.5" d="M47.8136 19.5681C24.962 8.67083 2.20196 4.2368 -17.3756 6.86813C-36.9532 9.49946 -52.3996 19.0686 -61.6173 34.2762C-70.8349 49.4837 -73.377 69.5926 -68.8985 91.8721C-64.4199 114.152 -53.1377 137.522 -36.5839 158.81C-20.0302 180.097 0.992952 198.27 23.6305 210.861C46.2679 223.452 69.4228 229.85 89.9506 229.187C110.478 228.524 127.384 220.832 138.373 207.155C149.361 193.478 153.899 174.479 151.37 152.739L40.5 117.682L47.8136 19.5681Z" fill="#A855F7"/>
<ellipse cx="169.46" cy="11.9602" rx="38.7249" ry="60.3263" transform="rotate(-45 169.46 11.9602)" fill="#2DD4BF" fill-opacity="0.8"/>
<ellipse cx="0.500023" cy="144" rx="38.7249" ry="60.3263" transform="rotate(-45 0.500023 144)" fill="#2DD4BF" fill-opacity="0.64"/>
<ellipse cx="244.86" cy="116.723" rx="64.7259" ry="62.4069" transform="rotate(-45 244.86 116.723)" fill="#2DD4BF"/>
<g filter="url(#filter0_b_107_148)">
<rect x="0.5" width="280" height="168" fill="#111827" fill-opacity="0.4"/>
</g>
<path d="M26.5104 97.952H29.1824V95.648C29.1824 95.3493 29.1931 94.9973 29.2144 94.592C29.2358 94.1867 29.2518 93.8347 29.2624 93.536H29.1984C29.0704 93.8027 28.9371 94.064 28.7984 94.32C28.6598 94.576 28.5158 94.8427 28.3664 95.12L26.5104 97.952ZM29.1824 102V99.376H24.6864V98.128L28.7184 91.824H30.9104V97.952H32.1904V99.376H30.9104V102H29.1824Z" fill="#F9FAFB"/>
<path d="M39.0864 102C39.1504 100.795 39.2784 99.7173 39.4704 98.768C39.6624 97.808 39.9558 96.896 40.3504 96.032C40.7451 95.168 41.2678 94.2827 41.9184 93.376H37.1024V91.824H43.9344V92.944C43.3371 93.68 42.8518 94.384 42.4784 95.056C42.1158 95.728 41.8278 96.4107 41.6144 97.104C41.4118 97.7867 41.2624 98.528 41.1664 99.328C41.0704 100.117 41.0011 101.008 40.9584 102H39.0864Z" fill="#F9FAFB"/>
<path d="M49.5824 102V100.496H51.8544V93.808H49.9824V92.656C50.4838 92.56 50.9211 92.448 51.2944 92.32C51.6678 92.1813 52.0144 92.016 52.3344 91.824H53.7104V100.496H55.7104V102H49.5824Z" fill="#F9FAFB"/>
<path d="M64.6864 97.04C64.3984 97.04 64.0944 97.1307 63.7744 97.312C63.4544 97.4827 63.1504 97.7813 62.8624 98.208C62.9584 99.1147 63.1771 99.7707 63.5184 100.176C63.8598 100.581 64.2758 100.784 64.7664 100.784C65.1931 100.784 65.5504 100.619 65.8384 100.288C66.1371 99.9467 66.2864 99.4667 66.2864 98.848C66.2864 98.2507 66.1424 97.8027 65.8544 97.504C65.5771 97.1947 65.1878 97.04 64.6864 97.04ZM64.7984 102.192C64.1371 102.192 63.5238 102.016 62.9584 101.664C62.3931 101.312 61.9398 100.768 61.5984 100.032C61.2678 99.296 61.1024 98.3573 61.1024 97.216C61.1024 95.8933 61.2891 94.8267 61.6624 94.016C62.0464 93.1947 62.5424 92.592 63.1504 92.208C63.7584 91.824 64.4091 91.632 65.1024 91.632C65.7211 91.632 66.2544 91.744 66.7024 91.968C67.1504 92.192 67.5238 92.464 67.8224 92.784L66.8304 93.904C66.6491 93.68 66.4091 93.4987 66.1104 93.36C65.8224 93.2107 65.5238 93.136 65.2144 93.136C64.7878 93.136 64.3984 93.2533 64.0464 93.488C63.6944 93.7227 63.4064 94.1173 63.1824 94.672C62.9691 95.216 62.8464 95.9573 62.8144 96.896C63.1131 96.5227 63.4651 96.2293 63.8704 96.016C64.2758 95.8027 64.6598 95.696 65.0224 95.696C65.9078 95.696 66.6224 95.9573 67.1664 96.48C67.7211 96.992 67.9984 97.7813 67.9984 98.848C67.9984 99.52 67.8491 100.107 67.5504 100.608C67.2624 101.109 66.8784 101.499 66.3984 101.776C65.9184 102.053 65.3851 102.192 64.7984 102.192Z" fill="#F9FAFB"/>
<path d="M91.1771 102.192C90.5157 102.192 89.9237 102.075 89.4011 101.84C88.8784 101.595 88.4677 101.264 88.1691 100.848C87.8704 100.432 87.7211 99.9467 87.7211 99.392C87.7211 98.7627 87.9077 98.2347 88.2811 97.808C88.6544 97.3813 89.0811 97.04 89.5611 96.784V96.72C89.1664 96.4427 88.8304 96.112 88.5531 95.728C88.2864 95.3333 88.1531 94.8693 88.1531 94.336C88.1531 93.7813 88.2864 93.3067 88.5531 92.912C88.8197 92.5067 89.1824 92.192 89.6411 91.968C90.1104 91.744 90.6384 91.632 91.2251 91.632C92.1424 91.632 92.8677 91.888 93.4011 92.4C93.9451 92.9013 94.2171 93.5627 94.2171 94.384C94.2171 94.8853 94.0731 95.3387 93.7851 95.744C93.4971 96.1493 93.1877 96.4747 92.8571 96.72V96.784C93.3264 97.0507 93.7371 97.3867 94.0891 97.792C94.4411 98.1973 94.6171 98.7413 94.6171 99.424C94.6171 99.9467 94.4731 100.416 94.1851 100.832C93.8971 101.248 93.4971 101.579 92.9851 101.824C92.4731 102.069 91.8704 102.192 91.1771 102.192ZM91.8491 96.256C92.1264 95.9787 92.3344 95.696 92.4731 95.408C92.6224 95.12 92.6971 94.816 92.6971 94.496C92.6971 94.048 92.5637 93.68 92.2971 93.392C92.0304 93.0933 91.6624 92.944 91.1931 92.944C90.7984 92.944 90.4677 93.0667 90.2011 93.312C89.9344 93.5573 89.8011 93.8987 89.8011 94.336C89.8011 94.6773 89.8917 94.9653 90.0731 95.2C90.2544 95.424 90.4997 95.6213 90.8091 95.792C91.1291 95.952 91.4757 96.1067 91.8491 96.256ZM91.2091 100.88C91.6997 100.88 92.0997 100.747 92.4091 100.48C92.7291 100.203 92.8891 99.8293 92.8891 99.36C92.8891 98.9867 92.7771 98.6827 92.5531 98.448C92.3397 98.2133 92.0464 98.0107 91.6731 97.84C91.3104 97.6587 90.8997 97.4773 90.4411 97.296C90.1211 97.5307 89.8544 97.808 89.6411 98.128C89.4384 98.448 89.3371 98.8053 89.3371 99.2C89.3371 99.7013 89.5184 100.107 89.8811 100.416C90.2437 100.725 90.6864 100.88 91.2091 100.88Z" fill="#F9FAFB"/>
<path d="M103.161 102.192C102.105 102.192 101.262 101.733 100.633 100.816C100.014 99.8987 99.7051 98.5813 99.7051 96.864C99.7051 95.1467 100.014 93.8453 100.633 92.96C101.262 92.0747 102.105 91.632 103.161 91.632C104.217 91.632 105.054 92.0747 105.673 92.96C106.302 93.8453 106.617 95.1467 106.617 96.864C106.617 98.5813 106.302 99.8987 105.673 100.816C105.054 101.733 104.217 102.192 103.161 102.192ZM103.161 100.752C103.492 100.752 103.785 100.629 104.041 100.384C104.297 100.128 104.494 99.7173 104.633 99.152C104.782 98.5867 104.857 97.824 104.857 96.864C104.857 95.904 104.782 95.1467 104.633 94.592C104.494 94.0373 104.297 93.648 104.041 93.424C103.785 93.1893 103.492 93.072 103.161 93.072C102.841 93.072 102.553 93.1893 102.297 93.424C102.041 93.648 101.838 94.0373 101.689 94.592C101.54 95.1467 101.465 95.904 101.465 96.864C101.465 97.824 101.54 98.5867 101.689 99.152C101.838 99.7173 102.041 100.128 102.297 100.384C102.553 100.629 102.841 100.752 103.161 100.752Z" fill="#F9FAFB"/>
<path d="M114.905 102.192C114.084 102.192 113.39 102.053 112.825 101.776C112.27 101.488 111.812 101.147 111.449 100.752L112.329 99.568C112.638 99.8773 112.99 100.144 113.385 100.368C113.78 100.581 114.233 100.688 114.745 100.688C115.3 100.688 115.748 100.555 116.089 100.288C116.441 100.011 116.617 99.632 116.617 99.152C116.617 98.8 116.526 98.496 116.345 98.24C116.174 97.9733 115.87 97.7707 115.433 97.632C115.006 97.4933 114.404 97.424 113.625 97.424V96.08C114.628 96.08 115.321 95.9253 115.705 95.616C116.089 95.3067 116.281 94.9173 116.281 94.448C116.281 94.0213 116.148 93.6907 115.881 93.456C115.614 93.2107 115.246 93.088 114.777 93.088C114.382 93.088 114.02 93.1787 113.689 93.36C113.358 93.5307 113.038 93.76 112.729 94.048L111.785 92.912C112.222 92.528 112.686 92.2187 113.177 91.984C113.678 91.7493 114.233 91.632 114.841 91.632C115.822 91.632 116.617 91.8667 117.225 92.336C117.833 92.7947 118.137 93.456 118.137 94.32C118.137 94.8853 117.977 95.3653 117.657 95.76C117.348 96.144 116.916 96.4427 116.361 96.656V96.72C116.958 96.88 117.46 97.1733 117.865 97.6C118.27 98.0267 118.473 98.576 118.473 99.248C118.473 99.8667 118.308 100.395 117.977 100.832C117.657 101.269 117.225 101.605 116.681 101.84C116.148 102.075 115.556 102.192 114.905 102.192Z" fill="#F9FAFB"/>
<path d="M125.353 94.96C125.353 95.5573 125.492 96.0107 125.769 96.32C126.057 96.6293 126.457 96.784 126.969 96.784C127.268 96.784 127.577 96.6933 127.897 96.512C128.228 96.32 128.526 96.016 128.793 95.6C128.697 94.704 128.478 94.0533 128.137 93.648C127.796 93.2427 127.374 93.04 126.873 93.04C126.457 93.04 126.1 93.2053 125.801 93.536C125.502 93.8667 125.353 94.3413 125.353 94.96ZM126.537 102.192C125.929 102.192 125.401 102.08 124.953 101.856C124.505 101.632 124.126 101.36 123.817 101.04L124.809 99.92C125.001 100.144 125.241 100.331 125.529 100.48C125.828 100.619 126.132 100.688 126.441 100.688C126.868 100.688 127.257 100.571 127.609 100.336C127.961 100.101 128.249 99.712 128.473 99.168C128.697 98.6133 128.82 97.8667 128.841 96.928C128.542 97.2907 128.19 97.5787 127.785 97.792C127.38 98.0053 126.99 98.112 126.617 98.112C125.742 98.112 125.028 97.856 124.473 97.344C123.929 96.8213 123.657 96.0267 123.657 94.96C123.657 94.2773 123.801 93.6907 124.089 93.2C124.388 92.6987 124.777 92.3147 125.257 92.048C125.748 91.7707 126.281 91.632 126.857 91.632C127.518 91.632 128.126 91.808 128.681 92.16C129.246 92.512 129.694 93.056 130.025 93.792C130.366 94.5173 130.537 95.4507 130.537 96.592C130.537 97.904 130.35 98.976 129.977 99.808C129.604 100.629 129.113 101.232 128.505 101.616C127.897 102 127.241 102.192 126.537 102.192Z" fill="#F9FAFB"/>
<path d="M153.828 102.192C152.772 102.192 151.929 101.733 151.3 100.816C150.681 99.8987 150.372 98.5813 150.372 96.864C150.372 95.1467 150.681 93.8453 151.3 92.96C151.929 92.0747 152.772 91.632 153.828 91.632C154.884 91.632 155.721 92.0747 156.34 92.96C156.969 93.8453 157.284 95.1467 157.284 96.864C157.284 98.5813 156.969 99.8987 156.34 100.816C155.721 101.733 154.884 102.192 153.828 102.192ZM153.828 100.752C154.158 100.752 154.452 100.629 154.708 100.384C154.964 100.128 155.161 99.7173 155.3 99.152C155.449 98.5867 155.524 97.824 155.524 96.864C155.524 95.904 155.449 95.1467 155.3 94.592C155.161 94.0373 154.964 93.648 154.708 93.424C154.452 93.1893 154.158 93.072 153.828 93.072C153.508 93.072 153.22 93.1893 152.964 93.424C152.708 93.648 152.505 94.0373 152.356 94.592C152.206 95.1467 152.132 95.904 152.132 96.864C152.132 97.824 152.206 98.5867 152.356 99.152C152.505 99.7173 152.708 100.128 152.964 100.384C153.22 100.629 153.508 100.752 153.828 100.752Z" fill="#F9FAFB"/>
<path d="M162.34 102V100.928C163.289 100.011 164.105 99.1947 164.788 98.48C165.481 97.7547 166.014 97.0987 166.388 96.512C166.761 95.9147 166.948 95.36 166.948 94.848C166.948 94.3147 166.804 93.888 166.516 93.568C166.228 93.248 165.812 93.088 165.268 93.088C164.873 93.088 164.51 93.2 164.18 93.424C163.86 93.648 163.561 93.9147 163.284 94.224L162.26 93.2C162.729 92.6987 163.214 92.3147 163.716 92.048C164.217 91.7707 164.814 91.632 165.508 91.632C166.489 91.632 167.268 91.9147 167.844 92.48C168.43 93.0453 168.724 93.8027 168.724 94.752C168.724 95.3493 168.553 95.9627 168.212 96.592C167.881 97.2107 167.433 97.8453 166.868 98.496C166.313 99.1467 165.7 99.8293 165.028 100.544C165.294 100.523 165.582 100.501 165.892 100.48C166.201 100.448 166.478 100.432 166.724 100.432H169.22V102H162.34Z" fill="#F9FAFB"/>
<circle opacity="0.5" cx="177.833" cy="96" r="2" fill="#F9FAFB"/>
<circle opacity="0.5" cx="189.833" cy="96" r="2" fill="#F9FAFB"/>
<circle opacity="0.5" cx="216.5" cy="96" r="2" fill="#F9FAFB"/>
<circle opacity="0.5" cx="228.5" cy="96" r="2" fill="#F9FAFB"/>
<circle opacity="0.5" cx="240.5" cy="96" r="2" fill="#F9FAFB"/>
<circle opacity="0.5" cx="252.5" cy="96" r="2" fill="#F9FAFB"/>
<path opacity="0.5" d="M28.308 141.168C27.664 141.168 27.0667 141.047 26.516 140.804C25.9653 140.552 25.4893 140.221 25.088 139.81L25.788 138.998C26.1147 139.343 26.4973 139.623 26.936 139.838C27.384 140.043 27.846 140.146 28.322 140.146C28.9287 140.146 29.4 140.011 29.736 139.74C30.072 139.46 30.24 139.096 30.24 138.648C30.24 138.331 30.17 138.079 30.03 137.892C29.8993 137.705 29.7173 137.547 29.484 137.416C29.26 137.285 29.0033 137.155 28.714 137.024L27.398 136.45C27.1087 136.329 26.8193 136.17 26.53 135.974C26.25 135.778 26.012 135.526 25.816 135.218C25.6293 134.91 25.536 134.532 25.536 134.084C25.536 133.617 25.6573 133.202 25.9 132.838C26.152 132.465 26.4973 132.175 26.936 131.97C27.3747 131.755 27.8693 131.648 28.42 131.648C28.9707 131.648 29.4793 131.755 29.946 131.97C30.4127 132.175 30.8093 132.446 31.136 132.782L30.506 133.538C30.226 133.267 29.9133 133.057 29.568 132.908C29.232 132.749 28.8493 132.67 28.42 132.67C27.9067 132.67 27.4913 132.791 27.174 133.034C26.866 133.277 26.712 133.603 26.712 134.014C26.712 134.303 26.7867 134.546 26.936 134.742C27.0947 134.929 27.2907 135.083 27.524 135.204C27.7573 135.325 27.9953 135.437 28.238 135.54L29.54 136.1C29.8947 136.249 30.212 136.431 30.492 136.646C30.7813 136.851 31.01 137.108 31.178 137.416C31.346 137.715 31.43 138.093 31.43 138.55C31.43 139.035 31.304 139.479 31.052 139.88C30.8 140.272 30.4407 140.585 29.974 140.818C29.5073 141.051 28.952 141.168 28.308 141.168ZM35.8845 141.168C35.2778 141.168 34.7272 141.028 34.2325 140.748C33.7378 140.459 33.3458 140.048 33.0565 139.516C32.7672 138.984 32.6225 138.349 32.6225 137.612C32.6225 136.865 32.7672 136.226 33.0565 135.694C33.3552 135.162 33.7378 134.751 34.2045 134.462C34.6712 134.173 35.1612 134.028 35.6745 134.028C36.5425 134.028 37.2098 134.317 37.6765 134.896C38.1525 135.475 38.3905 136.249 38.3905 137.22C38.3905 137.341 38.3858 137.463 38.3765 137.584C38.3765 137.696 38.3672 137.794 38.3485 137.878H33.7565C33.8032 138.597 34.0272 139.171 34.4285 139.6C34.8392 140.029 35.3712 140.244 36.0245 140.244C36.3512 140.244 36.6498 140.197 36.9205 140.104C37.2005 140.001 37.4665 139.871 37.7185 139.712L38.1245 140.468C37.8352 140.655 37.5038 140.818 37.1305 140.958C36.7665 141.098 36.3512 141.168 35.8845 141.168ZM33.7425 137.052H37.3825C37.3825 136.361 37.2332 135.839 36.9345 135.484C36.6452 135.12 36.2345 134.938 35.7025 134.938C35.2265 134.938 34.7972 135.125 34.4145 135.498C34.0412 135.862 33.8172 136.38 33.7425 137.052ZM42.0598 141.168C41.3412 141.168 40.8138 140.944 40.4778 140.496C40.1418 140.039 39.9738 139.376 39.9738 138.508V134.196H41.1358V138.354C41.1358 138.989 41.2338 139.451 41.4298 139.74C41.6352 140.029 41.9618 140.174 42.4098 140.174C42.7645 140.174 43.0772 140.085 43.3478 139.908C43.6278 139.721 43.9265 139.427 44.2438 139.026V134.196H45.3918V141H44.4398L44.3418 139.936H44.2998C43.9825 140.309 43.6465 140.608 43.2918 140.832C42.9372 141.056 42.5265 141.168 42.0598 141.168ZM50.4898 141V134.196H51.4418L51.5398 135.176H51.5818C51.9085 134.849 52.2538 134.579 52.6178 134.364C52.9818 134.14 53.3971 134.028 53.8638 134.028C54.5825 134.028 55.1051 134.257 55.4318 134.714C55.7678 135.162 55.9358 135.82 55.9358 136.688V141H54.7878V136.842C54.7878 136.207 54.6851 135.745 54.4798 135.456C54.2745 135.167 53.9478 135.022 53.4998 135.022C53.1545 135.022 52.8418 135.111 52.5618 135.288C52.2911 135.465 51.9831 135.727 51.6378 136.072V141H50.4898ZM60.792 141.168C60.2414 141.168 59.7234 141.028 59.238 140.748C58.762 140.468 58.3747 140.062 58.076 139.53C57.7867 138.998 57.642 138.359 57.642 137.612C57.642 136.847 57.7867 136.198 58.076 135.666C58.3747 135.134 58.762 134.728 59.238 134.448C59.7234 134.168 60.2414 134.028 60.792 134.028C61.352 134.028 61.87 134.168 62.346 134.448C62.822 134.728 63.2047 135.134 63.494 135.666C63.7927 136.198 63.942 136.847 63.942 137.612C63.942 138.359 63.7927 138.998 63.494 139.53C63.2047 140.062 62.822 140.468 62.346 140.748C61.87 141.028 61.352 141.168 60.792 141.168ZM60.792 140.216C61.38 140.216 61.8514 139.978 62.206 139.502C62.57 139.017 62.752 138.387 62.752 137.612C62.752 136.828 62.57 136.193 62.206 135.708C61.8514 135.223 61.38 134.98 60.792 134.98C60.2134 134.98 59.742 135.223 59.378 135.708C59.014 136.193 58.832 136.828 58.832 137.612C58.832 138.387 59.014 139.017 59.378 139.502C59.742 139.978 60.2134 140.216 60.792 140.216ZM65.7339 141V134.196H66.6859L66.7839 135.176H66.8259C67.1246 134.849 67.4513 134.579 67.8059 134.364C68.1606 134.14 68.5386 134.028 68.9399 134.028C69.4626 134.028 69.8686 134.145 70.1579 134.378C70.4566 134.602 70.6759 134.919 70.8159 135.33C71.1706 134.947 71.5299 134.635 71.8939 134.392C72.2579 134.149 72.6453 134.028 73.0559 134.028C73.7559 134.028 74.2739 134.257 74.6099 134.714C74.9553 135.162 75.1279 135.82 75.1279 136.688V141H73.9799V136.842C73.9799 136.207 73.8773 135.745 73.6719 135.456C73.4666 135.167 73.1493 135.022 72.7199 135.022C72.2159 135.022 71.6466 135.372 71.0119 136.072V141H69.8639V136.842C69.8639 136.207 69.7613 135.745 69.5559 135.456C69.3506 135.167 69.0286 135.022 68.5899 135.022C68.0859 135.022 67.5166 135.372 66.8819 136.072V141H65.7339ZM80.0994 141.168C79.4927 141.168 78.942 141.028 78.4474 140.748C77.9527 140.459 77.5607 140.048 77.2714 139.516C76.982 138.984 76.8374 138.349 76.8374 137.612C76.8374 136.865 76.982 136.226 77.2714 135.694C77.57 135.162 77.9527 134.751 78.4194 134.462C78.886 134.173 79.376 134.028 79.8894 134.028C80.7574 134.028 81.4247 134.317 81.8914 134.896C82.3674 135.475 82.6054 136.249 82.6054 137.22C82.6054 137.341 82.6007 137.463 82.5914 137.584C82.5914 137.696 82.582 137.794 82.5634 137.878H77.9714C78.018 138.597 78.242 139.171 78.6434 139.6C79.054 140.029 79.586 140.244 80.2394 140.244C80.566 140.244 80.8647 140.197 81.1354 140.104C81.4154 140.001 81.6814 139.871 81.9334 139.712L82.3394 140.468C82.05 140.655 81.7187 140.818 81.3454 140.958C80.9814 141.098 80.566 141.168 80.0994 141.168ZM77.9574 137.052H81.5974C81.5974 136.361 81.448 135.839 81.1494 135.484C80.86 135.12 80.4494 134.938 79.9174 134.938C79.4414 134.938 79.012 135.125 78.6294 135.498C78.256 135.862 78.032 136.38 77.9574 137.052ZM88.6574 141.168C88.0881 141.168 87.6121 141 87.2294 140.664C86.8561 140.319 86.6694 139.843 86.6694 139.236C86.6694 138.489 87.0007 137.92 87.6634 137.528C88.3354 137.127 89.3947 136.847 90.8414 136.688C90.8414 136.399 90.7994 136.123 90.7154 135.862C90.6407 135.601 90.5007 135.391 90.2954 135.232C90.0994 135.064 89.8147 134.98 89.4414 134.98C89.0494 134.98 88.6807 135.055 88.3354 135.204C87.9901 135.353 87.6821 135.521 87.4114 135.708L86.9634 134.91C87.2807 134.705 87.6681 134.509 88.1254 134.322C88.5921 134.126 89.0961 134.028 89.6374 134.028C90.4681 134.028 91.0701 134.285 91.4434 134.798C91.8167 135.302 92.0034 135.979 92.0034 136.828V141H91.0514L90.9534 140.188H90.9114C90.5941 140.449 90.2441 140.678 89.8614 140.874C89.4881 141.07 89.0867 141.168 88.6574 141.168ZM88.9934 140.244C89.3201 140.244 89.6281 140.165 89.9174 140.006C90.2067 139.847 90.5147 139.623 90.8414 139.334V137.444C89.7121 137.584 88.9187 137.794 88.4614 138.074C88.0134 138.354 87.7894 138.713 87.7894 139.152C87.7894 139.535 87.9061 139.815 88.1394 139.992C88.3727 140.16 88.6574 140.244 88.9934 140.244ZM98.4561 143.87V141.448L98.5121 140.216C98.2414 140.477 97.9288 140.701 97.5741 140.888C97.2288 141.075 96.8601 141.168 96.4681 141.168C95.6188 141.168 94.9374 140.86 94.4241 140.244C93.9108 139.619 93.6541 138.741 93.6541 137.612C93.6541 136.875 93.7894 136.24 94.0601 135.708C94.3401 135.167 94.7041 134.751 95.1521 134.462C95.6094 134.173 96.0948 134.028 96.6081 134.028C97.0001 134.028 97.3454 134.098 97.6441 134.238C97.9428 134.369 98.2461 134.569 98.5541 134.84H98.5821L98.6941 134.196H99.6181V143.87H98.4561ZM96.7201 140.202C97.3174 140.202 97.8961 139.889 98.4561 139.264V135.708C98.1668 135.447 97.8868 135.265 97.6161 135.162C97.3548 135.05 97.0841 134.994 96.8041 134.994C96.4401 134.994 96.1088 135.106 95.8101 135.33C95.5208 135.545 95.2874 135.848 95.1101 136.24C94.9328 136.623 94.8441 137.075 94.8441 137.598C94.8441 138.41 95.0074 139.049 95.3341 139.516C95.6608 139.973 96.1228 140.202 96.7201 140.202ZM103.898 141.168C103.179 141.168 102.652 140.944 102.316 140.496C101.98 140.039 101.812 139.376 101.812 138.508V134.196H102.974V138.354C102.974 138.989 103.072 139.451 103.268 139.74C103.473 140.029 103.8 140.174 104.248 140.174C104.602 140.174 104.915 140.085 105.186 139.908C105.466 139.721 105.764 139.427 106.082 139.026V134.196H107.23V141H106.278L106.18 139.936H106.138C105.82 140.309 105.484 140.608 105.13 140.832C104.775 141.056 104.364 141.168 103.898 141.168ZM109.525 141V134.196H110.673V141H109.525ZM110.113 132.796C109.889 132.796 109.702 132.731 109.553 132.6C109.413 132.46 109.343 132.273 109.343 132.04C109.343 131.816 109.413 131.634 109.553 131.494C109.702 131.354 109.889 131.284 110.113 131.284C110.337 131.284 110.519 131.354 110.659 131.494C110.808 131.634 110.883 131.816 110.883 132.04C110.883 132.273 110.808 132.46 110.659 132.6C110.519 132.731 110.337 132.796 110.113 132.796Z" fill="#F9FAFB"/>
<circle opacity="0.5" cx="203.5" cy="136" r="2" fill="#F9FAFB"/>
<circle opacity="0.5" cx="215.5" cy="136" r="2" fill="#F9FAFB"/>
<path opacity="0.5" d="M225.682 143.24L228.496 131.06H229.84L227.026 143.24H225.682Z" fill="#F9FAFB"/>
<circle opacity="0.5" cx="240.5" cy="136" r="2" fill="#F9FAFB"/>
<circle opacity="0.5" cx="252.5" cy="136" r="2" fill="#F9FAFB"/>
<g opacity="0.8" clip-path="url(#clip1_107_148)">
<path d="M54.1293 37.024L53.8293 35.524H50.4773L49.944 37.0133L47.2573 37.0187C48.5364 33.9429 49.8181 30.8682 51.1027 27.7947C51.3213 27.2733 51.7093 27.008 52.2813 27.0107C52.7187 27.0147 53.432 27.0147 54.4227 27.012L56.5 37.02L54.1293 37.024ZM51.232 33.4693H53.392L52.5853 29.7093L51.232 33.4693ZM33.9133 27.0093L36.6147 27.012L32.4387 37.0253L29.704 37.0227C29.0163 34.3778 28.3372 31.7306 27.6667 29.0813C27.5333 28.5533 27.2693 28.184 26.7613 28.0093C26.011 27.7579 25.2571 27.517 24.5 27.2867L24.5 27.0133H28.816C29.5627 27.0133 29.9987 27.3747 30.1387 28.116C30.28 28.8587 30.6347 30.7493 31.2053 33.788L33.9133 27.0093ZM40.3267 27.012L38.1907 37.0227L35.62 37.02L37.7533 27.0093L40.3267 27.012ZM45.54 26.8267C46.3093 26.8267 47.2787 27.0667 47.836 27.2867L47.3853 29.3627C46.8813 29.16 46.052 28.8867 45.3547 28.896C44.3413 28.9133 43.7147 29.3387 43.7147 29.7467C43.7147 30.4107 44.8027 30.7453 45.9227 31.4707C47.2013 32.2973 47.3693 33.04 47.3533 33.8467C47.336 35.5213 45.9227 37.1733 42.9413 37.1733C41.5813 37.1533 41.0907 37.0387 39.9813 36.6453L40.4507 34.4787C41.58 34.952 42.0587 35.1027 43.024 35.1027C43.908 35.1027 44.6667 34.7453 44.6733 34.1227C44.6787 33.68 44.4067 33.46 43.4147 32.9133C42.4227 32.3653 41.0307 31.6067 41.0493 30.084C41.072 28.1347 42.9187 26.8267 45.5413 26.8267H45.54Z" fill="#F9FAFB"/>
</g>
<g opacity="0.8">
<path d="M244.5 22.25C242.572 22.25 240.687 22.8218 239.083 23.8932C237.48 24.9645 236.23 26.4873 235.492 28.2688C234.754 30.0504 234.561 32.0108 234.937 33.9021C235.314 35.7934 236.242 37.5307 237.606 38.8943C238.969 40.2579 240.707 41.1865 242.598 41.5627C244.489 41.9389 246.45 41.7458 248.231 41.0078C250.013 40.2699 251.535 39.0202 252.607 37.4168C253.678 35.8134 254.25 33.9284 254.25 32C254.247 29.415 253.219 26.9366 251.391 25.1087C249.563 23.2808 247.085 22.2527 244.5 22.25ZM244.5 40.25C242.868 40.25 241.273 39.7661 239.917 38.8596C238.56 37.9531 237.502 36.6646 236.878 35.1571C236.254 33.6496 236.09 31.9908 236.409 30.3905C236.727 28.7902 237.513 27.3202 238.666 26.1664C239.82 25.0126 241.29 24.2268 242.891 23.9085C244.491 23.5902 246.15 23.7536 247.657 24.378C249.165 25.0024 250.453 26.0598 251.36 27.4165C252.266 28.7733 252.75 30.3683 252.75 32C252.748 34.1873 251.878 36.2843 250.331 37.8309C248.784 39.3775 246.687 40.2475 244.5 40.25ZM241.6 29.3994C242.024 30.2007 242.246 31.0935 242.246 32C242.246 32.9065 242.024 33.7993 241.6 34.6006C241.555 34.6898 241.493 34.7691 241.417 34.8339C241.342 34.8988 241.254 34.9478 241.158 34.9782C241.063 35.0085 240.963 35.0196 240.864 35.0108C240.764 35.002 240.668 34.9734 240.58 34.9267C240.491 34.88 240.413 34.8162 240.35 34.739C240.287 34.6618 240.24 34.5728 240.211 34.4771C240.183 34.3814 240.174 34.281 240.185 34.1818C240.196 34.0826 240.226 33.9866 240.275 33.8994C240.589 33.3155 240.753 32.6629 240.753 32C240.753 31.3371 240.589 30.6845 240.275 30.1006C240.187 29.9253 240.171 29.7224 240.23 29.5355C240.29 29.3486 240.421 29.1925 240.594 29.1008C240.768 29.009 240.97 28.9889 241.158 29.0447C241.346 29.1005 241.505 29.2279 241.6 29.3994ZM246.85 26.3994C247.773 28.1231 248.255 30.0478 248.255 32.0028C248.255 33.9578 247.773 35.8826 246.85 37.6063C246.75 37.7702 246.592 37.8896 246.406 37.9399C246.221 37.9902 246.023 37.9676 245.854 37.8766C245.685 37.7856 245.558 37.6333 245.497 37.451C245.437 37.2687 245.449 37.0702 245.531 36.8966C246.338 35.3905 246.76 33.7085 246.76 32C246.76 30.2915 246.338 28.6095 245.531 27.1034C245.438 26.9279 245.417 26.7223 245.475 26.5319C245.533 26.3415 245.664 26.1819 245.84 26.0881C246.015 25.9944 246.221 25.9742 246.411 26.0321C246.602 26.0899 246.761 26.221 246.855 26.3966L246.85 26.3994ZM244.225 27.8994C244.899 29.162 245.251 30.5709 245.251 32.0019C245.251 33.4328 244.899 34.8417 244.225 36.1044C244.18 36.1931 244.118 36.2718 244.041 36.3361C243.965 36.4004 243.877 36.4488 243.782 36.4787C243.687 36.5086 243.587 36.5192 243.488 36.51C243.389 36.5008 243.293 36.472 243.205 36.4252C243.117 36.3784 243.039 36.3145 242.976 36.2374C242.913 36.1603 242.866 36.0713 242.838 35.9759C242.81 35.8804 242.801 35.7802 242.812 35.6812C242.823 35.5823 242.853 35.4864 242.902 35.3994C243.459 34.3538 243.751 33.1869 243.751 32.0019C243.751 30.8168 243.459 29.65 242.902 28.6044C242.853 28.5173 242.823 28.4215 242.812 28.3225C242.801 28.2235 242.81 28.1234 242.838 28.0279C242.866 27.9324 242.913 27.8435 242.976 27.7663C243.039 27.6892 243.117 27.6254 243.205 27.5786C243.293 27.5318 243.389 27.5029 243.488 27.4937C243.587 27.4845 243.687 27.4952 243.782 27.5251C243.877 27.5549 243.965 27.6034 244.041 27.6677C244.118 27.7319 244.18 27.8107 244.225 27.8994Z" fill="#F9FAFB"/>
</g>
</g>
<rect x="1" y="0.5" width="279" height="167" rx="15.5" stroke="#374151"/>
<defs>
<filter id="filter0_b_107_148" x="-47.5" y="-48" width="376" height="264" filterUnits="userSpaceOnUse" color-interpolation-filters="sRGB">
<feFlood flood-opacity="0" result="BackgroundImageFix"/>
<feGaussianBlur in="BackgroundImageFix" stdDeviation="24"/>
<feComposite in2="SourceAlpha" operator="in" result="effect1_backgroundBlur_107_148"/>
<feBlend mode="normal" in="SourceGraphic" in2="effect1_backgroundBlur_107_148" result="shape"/>
</filter>
<clipPath id="clip0_107_148">
<rect x="0.5" width="280" height="168" rx="16" fill="white"/>
</clipPath>
<clipPath id="clip1_107_148">
<rect width="32" height="32" fill="white" transform="translate(24.5 16)"/>
</clipPath>
</defs>
</svg>
