<svg width="328" height="216" viewBox="0 0 328 216" fill="none" xmlns="http://www.w3.org/2000/svg">
<g filter="url(#filter0_d_107_201)">
<g clip-path="url(#clip0_107_201)">
<rect x="24" y="20" width="280" height="168" rx="16" fill="#111827"/>
<ellipse cx="238.501" cy="90.5011" rx="67.0078" ry="104.486" transform="rotate(-45 238.501 90.5011)" fill="#A855F7"/>
<path opacity="0.5" d="M71.3136 39.5681C48.462 28.6708 25.702 24.2368 6.12444 26.8681C-13.4531 29.4995 -28.8996 39.0686 -38.1172 54.2762C-47.3348 69.4837 -49.877 89.5926 -45.3984 111.872C-40.9199 134.152 -29.6376 157.522 -13.0839 178.81C3.46991 200.097 24.493 218.27 47.1305 230.861C69.768 243.452 92.9229 249.85 113.451 249.187C133.978 248.524 150.884 240.832 161.873 227.155C172.861 213.478 177.399 194.479 174.87 172.739L64 137.682L71.3136 39.5681Z" fill="#A855F7"/>
<ellipse cx="192.96" cy="31.9602" rx="38.7249" ry="60.3263" transform="rotate(-45 192.96 31.9602)" fill="#2DD4BF" fill-opacity="0.8"/>
<ellipse cx="24" cy="164" rx="38.7249" ry="60.3263" transform="rotate(-45 24 164)" fill="#2DD4BF" fill-opacity="0.64"/>
<ellipse cx="268.36" cy="136.723" rx="64.7259" ry="62.4069" transform="rotate(-45 268.36 136.723)" fill="#2DD4BF"/>
<rect x="24" y="20" width="280" height="168" fill="#111827" fill-opacity="0.4"/>
</g>
<rect x="24.5" y="20.5" width="279" height="167" rx="15.5" stroke="#374151"/>
</g>
<defs>
<filter id="filter0_d_107_201" x="0" y="0" width="328" height="216" filterUnits="userSpaceOnUse" color-interpolation-filters="sRGB">
<feFlood flood-opacity="0" result="BackgroundImageFix"/>
<feColorMatrix in="SourceAlpha" type="matrix" values="0 0 0 0 0 0 0 0 0 0 0 0 0 0 0 0 0 0 127 0" result="hardAlpha"/>
<feOffset dy="4"/>
<feGaussianBlur stdDeviation="12"/>
<feComposite in2="hardAlpha" operator="out"/>
<feColorMatrix type="matrix" values="0 0 0 0 0 0 0 0 0 0 0 0 0 0 0 0 0 0 0.25 0"/>
<feBlend mode="normal" in2="BackgroundImageFix" result="effect1_dropShadow_107_201"/>
<feBlend mode="normal" in="SourceGraphic" in2="effect1_dropShadow_107_201" result="shape"/>
</filter>
<clipPath id="clip0_107_201">
<rect x="24" y="20" width="280" height="168" rx="16" fill="white"/>
</clipPath>
</defs>
</svg>
