<svg width="40" height="32" viewBox="0 0 40 32" fill="none" xmlns="http://www.w3.org/2000/svg">
<g filter="url(#filter0_d_31_65)">
<path d="M4.99776 20.7947C4.85574 20.5648 4.6627 20.1968 4.54663 19.9262C3.8604 18.333 3.82755 16.6843 4.40713 15.1016C5.0443 13.3658 6.26148 12.0369 7.8342 11.3603C9.81141 10.5094 11.9982 10.6772 13.8932 11.8016C15.097 12.4922 15.9504 13.5585 16.5984 15.0661L16.6586 15.2127L16.7707 15.504C16.7888 15.5509 16.8065 15.5966 16.8242 15.6404L4.99776 20.7947ZM8.94681 13.9179C7.54272 14.5213 6.81893 15.8385 6.96763 17.3829L12.9156 14.823C11.8928 13.6208 10.5615 13.2225 8.94681 13.9179ZM15.9562 21.0248L13.6572 19.4876L13.6539 19.491L13.5307 19.408C13.176 19.984 12.622 20.4504 11.9233 20.7534C10.5938 21.3316 9.3617 21.183 8.47696 20.407L8.3956 20.5307C8.39472 20.5293 8.39451 20.5282 8.39297 20.5282L6.88409 22.7857C7.25944 23.0465 7.66144 23.2668 8.08331 23.4427C9.7502 24.1351 11.4556 24.103 13.1358 23.3723C14.3511 22.8456 15.3046 22.0426 15.9562 21.0247V21.0248ZM20.9579 8.03564V20.5863L22.9092 21.3771L21.8004 23.9642L19.6465 23.0673C19.163 22.8581 18.8341 22.5376 18.5848 22.176C18.3467 21.8075 18.1685 21.3016 18.1685 20.6205V8.03564H20.9579ZM26.0129 17.389C26.014 16.3203 26.4859 15.3618 27.2327 14.7104L25.2307 12.4782C23.873 13.6783 23.0178 15.432 23.0162 17.3859C23.0141 19.3405 23.8679 21.0959 25.2243 22.2992L27.2239 20.0648C26.4808 19.4109 26.012 18.4553 26.0129 17.389ZM29.5698 20.9513C29.1756 20.9502 28.796 20.885 28.442 20.7672L27.486 23.6098C28.1567 23.8346 28.8593 23.9495 29.5667 23.9499C32.7365 23.953 35.3833 21.7039 35.9966 18.714L33.058 18.114C32.7238 19.7345 31.2888 20.9524 29.5698 20.9513ZM29.5786 10.8349C28.8721 10.8335 28.1701 10.9465 27.4998 11.1695L28.4475 14.0147C28.8114 13.8942 29.1923 13.8328 29.5757 13.8327C31.2988 13.8343 32.7348 15.0594 33.0611 16.6846L36 16.0885C35.3951 13.0942 32.751 10.8368 29.5786 10.8349Z" fill="#F9FAFB"/>
</g>
<defs>
<filter id="filter0_d_31_65" x="0" y="0" width="40" height="40" filterUnits="userSpaceOnUse" color-interpolation-filters="sRGB">
<feFlood flood-opacity="0" result="BackgroundImageFix"/>
<feColorMatrix in="SourceAlpha" type="matrix" values="0 0 0 0 0 0 0 0 0 0 0 0 0 0 0 0 0 0 127 0" result="hardAlpha"/>
<feOffset dy="4"/>
<feGaussianBlur stdDeviation="2"/>
<feComposite in2="hardAlpha" operator="out"/>
<feColorMatrix type="matrix" values="0 0 0 0 0 0 0 0 0 0 0 0 0 0 0 0 0 0 0.25 0"/>
<feBlend mode="normal" in2="BackgroundImageFix" result="effect1_dropShadow_31_65"/>
<feBlend mode="normal" in="SourceGraphic" in2="effect1_dropShadow_31_65" result="shape"/>
</filter>
</defs>
</svg>
